<?xml version="1.0" standalone="no"?>
<!DOCTYPE svg PUBLIC "-//W3C//DTD SVG 20010904//EN"
 "http://www.w3.org/TR/2001/REC-SVG-20010904/DTD/svg10.dtd">
<svg version="1.0" xmlns="http://www.w3.org/2000/svg"
 width="1024.000000pt" height="583.000000pt" viewBox="0 0 1024.000000 583.000000"
 preserveAspectRatio="xMidYMid meet">
<metadata>
Created by potrace 1.16, written by Peter Selinger 2001-2019
</metadata>
<g transform="translate(0.000000,583.000000) scale(0.100000,-0.100000)"
fill="#000000" stroke="none">
<path d="M5105 5549 c-1205 -67 -2347 -371 -3180 -847 -853 -487 -1373 -1106
-1497 -1780 -17 -95 -21 -154 -21 -317 0 -176 3 -215 26 -321 88 -415 309
-815 630 -1143 234 -238 484 -434 768 -603 124 -73 372 -207 357 -193 -2 3
-43 31 -91 62 -148 100 -357 272 -492 408 -325 324 -530 664 -625 1031 -176
685 53 1373 644 1942 718 689 1828 1160 3216 1363 462 68 1109 101 1570 80
243 -11 312 -16 630 -47 181 -17 562 -78 790 -125 657 -136 1332 -380 1813
-657 48 -28 87 -49 87 -47 0 2 -51 39 -113 83 -146 103 -372 243 -512 317 -60
32 -128 68 -150 80 -60 32 -320 149 -437 196 -754 302 -1592 477 -2488 519
-247 11 -706 11 -925 -1z"/>
<path d="M6881 3899 c-89 -15 -231 -67 -306 -111 -224 -132 -370 -406 -369
-693 1 -129 24 -194 96 -266 53 -54 194 -127 322 -169 174 -57 268 -122 282
-196 9 -51 -12 -135 -45 -182 -54 -73 -156 -99 -208 -51 -24 23 -25 28 -19 94
3 39 8 82 12 98 l6 27 -309 0 -309 0 -19 -96 c-54 -291 55 -447 351 -503 146
-28 273 -34 414 -21 417 40 665 239 765 611 50 186 43 318 -23 428 -57 97
-157 163 -367 241 -211 80 -264 113 -285 176 -31 93 44 223 139 239 85 14 130
-44 111 -144 -5 -30 -10 -55 -10 -57 0 -2 130 -4 289 -4 l289 0 5 23 c58 245
3 407 -169 495 -101 52 -177 65 -389 68 -110 1 -224 -2 -254 -7z"/>
<path d="M3020 3673 c-46 -104 -120 -269 -165 -368 -181 -396 -230 -506 -406
-895 -100 -223 -194 -433 -210 -467 l-28 -63 327 0 327 0 59 155 59 155 179 0
179 0 -5 -42 c-3 -24 -8 -74 -11 -113 -3 -38 -8 -89 -12 -112 l-5 -43 324 0
325 0 6 632 c4 347 7 793 7 990 l0 358 -433 0 -434 0 -83 -187z m392 -698
l-37 -400 -129 -3 c-120 -2 -128 -1 -121 15 8 18 19 49 211 558 77 204 110
281 111 260 2 -16 -14 -210 -35 -430z"/>
<path d="M4467 3853 c-3 -5 -10 -35 -17 -68 -11 -58 -60 -280 -195 -890 -35
-159 -85 -384 -110 -500 -25 -115 -52 -238 -60 -273 -9 -35 -22 -96 -31 -135
-8 -40 -17 -80 -20 -89 -5 -17 12 -18 270 -18 152 0 276 2 276 4 0 3 18 85 40
183 23 98 68 302 100 453 78 358 111 504 113 507 6 6 93 -814 113 -1059 l7
-88 401 0 401 0 23 103 c13 56 43 188 67 292 89 383 355 1570 355 1580 0 3
-123 5 -273 5 l-273 0 -56 -257 c-31 -142 -87 -400 -125 -575 -37 -174 -71
-314 -75 -312 -5 3 -8 23 -8 44 0 21 -13 171 -29 332 -16 161 -40 400 -52 531
l-23 237 -407 0 c-224 0 -410 -3 -412 -7z"/>
<path d="M8002 3748 c-24 -114 -98 -452 -218 -998 -150 -678 -185 -836 -190
-852 -5 -17 14 -18 313 -18 l318 0 57 258 c32 141 80 356 106 477 27 121 61
274 76 340 52 242 196 880 201 893 3 9 -64 12 -318 12 l-322 0 -23 -112z"/>
<path d="M4030 1248 c-72 -144 -130 -264 -130 -265 0 -2 26 -3 58 -3 l57 0 24
55 23 55 74 0 74 0 0 -55 0 -55 56 0 55 0 -7 153 c-4 83 -9 202 -13 262 l-6
110 -68 3 -67 3 -130 -263z"/>
<path d="M7117 1253 c-31 -142 -57 -262 -57 -266 0 -4 22 -7 50 -7 43 0 50 3
55 23 3 12 20 92 39 177 23 106 35 147 39 130 4 -14 15 -81 27 -150 33 -202
22 -180 93 -180 l62 0 54 253 c29 138 56 258 59 265 3 10 -8 12 -49 10 l-54
-3 -34 -167 c-19 -93 -38 -168 -42 -168 -4 0 -13 33 -19 73 -7 39 -20 115 -29
167 l-16 95 -60 3 -61 3 -57 -258z"/>
<path d="M9516 1465 c-4 -24 -29 -140 -57 -257 -27 -117 -49 -216 -49 -220 0
-5 24 -8 53 -8 l52 0 24 113 c12 61 38 175 57 252 19 77 34 146 34 153 0 8
-17 12 -54 12 l-54 0 -6 -45z"/>
<path d="M7990 1433 c-13 -51 -18 -58 -41 -61 -18 -2 -29 -11 -33 -25 -10 -38
-7 -47 19 -47 14 0 25 -2 25 -4 0 -3 -11 -56 -25 -120 -14 -64 -25 -129 -25
-145 0 -40 32 -61 92 -61 43 0 50 3 58 26 16 40 12 54 -14 54 -13 0 -26 6 -28
13 -3 6 6 63 20 125 l25 112 32 0 c25 0 34 5 39 23 10 38 7 46 -21 49 -30 3
-30 5 -17 81 l7 37 -50 0 -49 0 -14 -57z"/>
<path d="M4570 1363 c-17 -12 -25 -13 -28 -5 -2 7 -23 12 -51 12 l-47 0 -38
-177 c-22 -98 -41 -186 -44 -195 -4 -15 3 -18 46 -18 59 0 51 -15 93 177 25
114 45 146 87 141 38 -4 39 -37 4 -190 l-29 -128 52 0 52 0 28 128 c36 168 49
192 105 192 31 0 32 -32 0 -171 -16 -73 -30 -137 -30 -141 0 -5 22 -8 49 -8
57 0 50 -13 86 154 34 156 35 204 5 228 -31 25 -103 24 -146 -3 l-33 -20 -20
20 c-27 27 -106 29 -141 4z"/>
<path d="M5084 1361 c-66 -40 -110 -128 -120 -239 -7 -74 8 -122 45 -142 30
-16 129 -12 168 6 36 18 83 77 83 106 0 15 -9 18 -45 18 -31 0 -45 -4 -45 -13
0 -20 -43 -57 -66 -57 -11 0 -25 5 -32 12 -13 13 -16 67 -4 84 4 6 54 14 112
18 57 4 107 9 109 12 3 2 7 31 9 64 5 72 -10 116 -49 135 -41 21 -127 19 -165
-4z"/>
<path d="M5523 1360 c-27 -16 -33 -17 -33 -5 0 11 -12 15 -48 15 l-49 0 -36
-162 c-21 -90 -40 -178 -43 -195 l-6 -33 50 0 c40 0 52 4 55 18 3 9 15 64 28
122 27 123 53 160 112 160 33 0 35 3 46 44 6 25 11 47 11 50 0 14 -58 4 -87
-14z"/>
<path d="M5905 1369 c-45 -26 -86 -76 -105 -127 -42 -110 -36 -223 13 -257 28
-19 138 -20 175 -1 37 19 68 55 87 98 8 21 15 40 15 43 0 3 -23 5 -50 5 -46 0
-51 -3 -61 -27 -24 -64 -67 -81 -95 -38 -15 22 -14 31 2 107 13 62 25 90 45
111 41 41 78 33 83 -19 3 -27 6 -29 50 -32 44 -3 46 -2 47 25 2 52 -2 68 -27
93 -20 20 -35 25 -91 27 -39 2 -77 -1 -88 -8z"/>
<path d="M6248 1359 c-32 -16 -78 -78 -78 -104 0 -3 23 -5 50 -5 28 0 50 5 50
10 0 19 40 50 65 50 32 0 48 -29 32 -60 -10 -19 -26 -26 -82 -37 -107 -22
-165 -77 -165 -158 0 -54 36 -85 98 -85 35 0 57 6 76 21 21 17 26 18 26 5 0
-13 12 -16 55 -16 43 0 53 3 49 14 -3 8 2 43 10 78 59 244 59 264 -1 296 -35
19 -142 14 -185 -9z"/>
<path d="M6720 1373 c-8 -3 -24 -13 -34 -22 -18 -15 -19 -15 -13 2 6 15 0 17
-47 17 l-52 0 -12 -57 c-17 -87 -62 -296 -68 -315 -5 -16 2 -18 48 -18 l53 0
29 135 c17 83 36 145 48 160 23 30 75 35 85 8 3 -9 -8 -77 -25 -152 -18 -75
-32 -139 -32 -143 0 -5 24 -8 54 -8 l53 0 16 83 c9 45 23 115 32 156 18 84 13
124 -18 146 -21 15 -87 19 -117 8z"/>
<path d="M7632 1360 c-32 -20 -72 -74 -72 -97 0 -9 15 -13 43 -13 37 0 46 4
55 25 20 43 92 45 100 2 6 -28 -33 -53 -99 -66 -35 -7 -74 -19 -87 -27 -62
-40 -84 -150 -39 -192 31 -29 97 -30 143 -1 29 17 34 18 34 5 0 -12 11 -16 50
-16 l50 0 0 35 c0 19 11 83 25 141 25 108 30 150 19 179 -18 46 -160 63 -222
25z"/>
<path d="M8413 1355 c-58 -35 -104 -128 -111 -225 -9 -125 26 -165 139 -158
88 5 133 38 168 124 25 61 38 173 27 219 -16 65 -143 88 -223 40z m115 -57
c25 -25 1 -178 -36 -228 -22 -29 -69 -34 -86 -8 -23 36 29 226 66 241 23 9 44
7 56 -5z"/>
<path d="M8864 1365 c-22 -17 -38 -20 -29 -5 4 6 -13 10 -44 10 -39 0 -51 -4
-55 -17 -2 -10 -18 -79 -35 -153 -17 -74 -35 -151 -41 -170 -15 -50 -15 -50
44 -50 l54 0 7 49 c14 103 54 236 76 254 26 21 52 22 69 2 13 -15 7 -55 -31
-205 -26 -103 -27 -100 31 -100 46 0 50 2 56 28 3 15 10 43 15 62 4 19 17 81
29 137 21 110 17 143 -19 162 -29 16 -104 13 -127 -4z"/>
<path d="M9168 1359 c-32 -16 -78 -78 -78 -104 0 -3 22 -5 48 -5 42 0 50 3 60
25 12 25 51 41 77 31 18 -7 20 -59 3 -74 -7 -5 -38 -13 -69 -17 -107 -13 -169
-73 -169 -162 0 -33 5 -46 26 -62 36 -29 112 -29 148 0 21 17 26 18 26 5 0
-13 11 -16 53 -16 l53 0 0 38 c0 20 13 93 28 161 26 112 28 127 15 150 -8 14
-26 31 -39 38 -39 20 -139 15 -182 -8z"/>
<path d="M5645 1333 c-3 -21 -22 -104 -41 -186 -19 -81 -34 -152 -34 -158 0
-6 21 -9 52 -7 l52 3 36 165 c20 91 40 177 43 193 7 27 7 27 -47 27 l-54 0 -7
-37z"/>
<path d="M8157 1243 c-15 -71 -34 -159 -42 -197 -8 -38 -14 -70 -13 -71 2 0
27 1 56 3 39 3 52 8 52 20 0 8 18 93 40 188 22 95 40 176 40 179 0 3 -24 5
-53 5 l-52 0 -28 -127z"/>
<path d="M3935 811 c-72 -33 -115 -100 -115 -177 0 -46 33 -80 121 -123 83
-41 97 -66 59 -113 -46 -59 -130 -41 -130 28 l0 35 -52 -3 -53 -3 -3 -48 c-6
-92 47 -132 164 -125 80 5 148 37 178 82 30 47 40 116 23 157 -13 31 -28 43
-100 79 -47 23 -88 48 -91 56 -13 34 35 94 76 94 26 0 61 -38 55 -61 -5 -17 1
-19 49 -19 l54 0 0 44 c0 61 -7 74 -51 96 -49 25 -131 26 -184 1z"/>
<path d="M5457 768 c-8 -29 -18 -66 -21 -82 -7 -28 -7 -28 -28 -10 -26 25 -95
25 -132 1 -91 -60 -151 -307 -89 -369 28 -27 93 -34 134 -14 37 19 42 20 34 6
-4 -6 14 -10 48 -10 l54 0 7 43 c4 23 27 128 51 232 23 105 46 205 50 223 l7
32 -50 0 -51 0 -14 -52z m-71 -156 c29 -19 23 -114 -12 -193 -34 -77 -96 -76
-102 0 -8 107 63 227 114 193z"/>
<path d="M6457 739 c-17 -74 -20 -80 -35 -66 -27 24 -76 30 -114 14 -78 -33
-130 -141 -132 -275 -1 -80 0 -85 27 -108 34 -29 100 -33 137 -7 17 12 25 13
28 5 2 -7 23 -12 51 -12 l46 0 29 133 c15 72 41 190 57 260 16 71 29 130 29
133 0 2 -24 4 -53 4 l-52 0 -18 -81z m-52 -136 c34 -33 -9 -206 -57 -233 -44
-24 -63 -5 -62 61 2 134 66 226 119 172z"/>
<path d="M7130 578 c-28 -134 -54 -253 -57 -265 -5 -22 -2 -23 49 -23 l54 0
33 143 c40 175 81 366 81 378 0 5 -24 9 -54 9 l-53 0 -53 -242z"/>
<path d="M4286 783 c-3 -10 -8 -35 -12 -55 -5 -34 -10 -38 -35 -38 -24 0 -30
-5 -37 -32 -11 -40 -7 -48 22 -48 l23 0 -28 -122 c-34 -147 -34 -160 -11 -181
46 -42 124 -33 141 14 14 41 15 39 -13 39 -14 0 -28 5 -31 10 -4 6 6 62 20
125 27 113 27 115 55 115 33 0 35 3 45 48 6 31 5 32 -25 32 -25 0 -30 4 -27
18 3 9 8 34 12 55 l6 37 -50 0 c-39 0 -51 -4 -55 -17z"/>
<path d="M8111 745 c-11 -51 -15 -55 -40 -55 -24 0 -30 -5 -35 -31 -9 -47 -8
-49 19 -49 14 0 25 -2 25 -4 0 -2 -11 -53 -25 -114 -28 -123 -31 -175 -12
-189 20 -16 59 -23 97 -17 30 5 37 12 46 39 10 32 9 34 -15 37 -36 4 -37 24
-11 145 23 101 24 103 51 103 30 0 49 23 49 59 0 17 -6 21 -31 21 -24 0 -29 4
-25 18 3 9 8 34 12 55 l6 37 -49 0 -50 0 -12 -55z"/>
<path d="M8521 745 c-11 -51 -15 -55 -40 -55 -24 0 -30 -5 -35 -31 -9 -47 -8
-49 20 -49 19 0 24 -4 20 -17 -3 -10 -16 -71 -31 -136 -28 -129 -25 -150 23
-168 33 -13 112 -2 112 14 0 7 3 22 6 35 5 17 2 22 -14 22 -38 0 -40 20 -13
137 25 111 27 113 54 113 20 0 30 7 37 26 17 42 12 54 -19 54 -28 0 -29 1 -20
38 16 69 14 72 -39 72 l-49 0 -12 -55z"/>
<path d="M9140 776 c0 -12 -5 -37 -11 -55 -9 -25 -16 -31 -40 -31 -21 0 -29
-5 -29 -17 0 -10 -3 -28 -6 -40 -5 -20 -2 -23 20 -23 14 0 26 -4 26 -8 0 -5
-11 -60 -25 -122 -14 -62 -25 -126 -25 -141 0 -36 33 -59 85 -59 48 0 70 15
79 52 5 24 3 27 -21 30 -34 4 -35 22 -7 155 18 90 20 93 46 93 29 0 48 23 48
59 0 16 -6 21 -26 21 -25 0 -25 1 -19 55 l7 55 -51 0 c-47 0 -51 -2 -51 -24z"/>
<path d="M4547 686 c-48 -18 -83 -49 -96 -87 -11 -33 -10 -35 45 -38 36 -2 42
1 47 21 8 32 52 56 75 42 22 -14 27 -57 9 -72 -8 -7 -37 -16 -65 -22 -82 -15
-131 -45 -153 -93 -26 -59 -25 -102 6 -132 29 -30 89 -34 138 -9 21 12 32 13
35 5 2 -6 25 -11 53 -11 44 0 49 2 49 23 0 12 13 82 29 155 32 144 30 174 -10
204 -33 25 -114 32 -162 14z"/>
<path d="M4983 681 c-35 -16 -43 -17 -43 -6 0 11 -13 15 -49 15 -47 0 -49 -1
-54 -32 -3 -18 -22 -102 -41 -187 -20 -85 -36 -161 -36 -168 0 -9 15 -13 50
-13 56 0 48 -16 90 175 12 55 27 108 32 118 11 22 45 36 70 29 25 -6 23 -42
-11 -194 l-28 -128 53 0 53 0 11 58 c6 31 20 94 31 140 25 108 25 164 0 186
-29 26 -80 29 -128 7z"/>
<path d="M5705 691 c-48 -12 -75 -30 -95 -64 -33 -53 -27 -67 25 -67 25 0 45
5 45 10 0 16 47 60 63 60 7 0 22 -6 32 -14 16 -12 17 -17 6 -45 -8 -17 -16
-31 -20 -31 -41 -1 -150 -35 -175 -54 -56 -42 -73 -140 -31 -181 31 -32 95
-34 143 -5 26 16 32 17 32 5 0 -11 13 -15 54 -15 47 0 54 2 49 18 -2 10 10 79
27 152 35 147 34 190 -4 215 -28 19 -109 27 -151 16z"/>
<path d="M6705 691 c-74 -18 -115 -67 -115 -137 0 -48 8 -57 94 -99 41 -20 62
-37 64 -51 4 -28 -30 -56 -65 -52 -22 2 -30 10 -38 36 -9 32 -11 33 -55 30
-43 -3 -45 -4 -48 -36 -7 -70 55 -109 155 -99 97 10 155 62 157 141 1 56 -17
76 -99 108 -62 25 -77 46 -55 73 7 8 28 15 46 15 28 0 35 -5 40 -25 5 -22 12
-25 50 -25 43 0 44 1 44 33 0 74 -75 112 -175 88z"/>
<path d="M7503 689 c-18 -5 -35 -14 -38 -19 -10 -16 -25 -11 -18 6 5 13 -3 15
-48 12 l-53 -3 -38 -175 c-20 -96 -40 -185 -43 -197 -5 -22 -2 -23 47 -23 l53
0 29 136 c17 76 38 146 48 159 22 29 52 37 75 20 16 -12 16 -20 -11 -141 -15
-71 -30 -139 -33 -152 -5 -22 -3 -23 48 -20 l54 3 32 140 c45 202 43 233 -18
254 -37 13 -42 13 -86 0z"/>
<path d="M7796 685 c-61 -21 -88 -55 -94 -115 -6 -64 14 -89 99 -119 49 -18
59 -26 59 -45 0 -32 -32 -58 -67 -54 -22 2 -30 10 -38 36 -9 32 -11 33 -55 30
-39 -3 -45 -6 -48 -27 -10 -69 38 -111 128 -111 64 0 133 30 162 70 9 14 20
43 24 66 8 52 -20 87 -91 112 -65 22 -75 29 -75 51 0 53 83 66 96 15 6 -22 11
-25 48 -22 37 3 41 6 44 31 9 76 -90 118 -192 82z"/>
<path d="M9405 685 c-82 -29 -132 -119 -142 -257 l-6 -77 36 -36 c31 -31 41
-35 84 -34 50 1 95 14 129 39 21 15 64 77 64 93 0 4 -22 7 -49 7 -41 0 -51 -4
-56 -20 -8 -25 -58 -52 -79 -44 -19 7 -29 40 -24 80 l3 29 108 3 c105 3 108 3
117 28 16 40 12 127 -6 153 -33 47 -106 62 -179 36z"/>
<path d="M5947 513 c-21 -98 -40 -188 -43 -200 -6 -22 -3 -23 48 -23 l54 0 22
116 c13 63 28 125 33 138 13 28 59 56 91 56 20 0 27 8 36 39 7 21 12 41 12 45
0 15 -70 4 -94 -15 l-26 -20 0 20 c0 18 -6 21 -48 21 l-48 0 -37 -177z"/>
<path d="M8267 513 c-21 -98 -40 -188 -43 -200 -6 -22 -4 -23 49 -23 54 0 54
0 60 33 3 17 22 101 41 186 20 85 36 161 36 168 0 9 -16 13 -53 13 l-53 0 -37
-177z"/>
<path d="M8710 682 c0 -4 -13 -70 -30 -147 -36 -166 -37 -208 -10 -235 26 -26
93 -26 142 0 29 15 36 16 32 5 -5 -12 4 -15 44 -15 l50 0 15 63 c9 34 27 116
42 182 14 66 28 128 31 138 5 15 -2 17 -48 17 l-53 0 -23 -107 c-33 -153 -49
-198 -76 -212 -67 -36 -80 14 -43 165 43 174 46 154 -18 154 -30 0 -55 -3 -55
-8z"/>
</g>
</svg>
